<svg xmlns:dc="http://purl.org/dc/elements/1.1/" xmlns:cc="http://creativecommons.org/ns#" xmlns:rdf="http://www.w3.org/1999/02/22-rdf-syntax-ns#" xmlns="http://www.w3.org/2000/svg" xmlns:sodipodi="http://sodipodi.sourceforge.net/DTD/sodipodi-0.dtd" xmlns:inkscape="http://www.inkscape.org/namespaces/inkscape" width="489.76" height="238.858" sodipodi:docname="1C.svg" inkscape:version="1.0.2 (e86c870879, 2021-01-15, custom)"><metadata><rdf:RDF><cc:Work><dc:format>image/svg+xml</dc:format><dc:type rdf:resource="http://purl.org/dc/dcmitype/StillImage"/><dc:title/></cc:Work></rdf:RDF></metadata><defs><clipPath clipPathUnits="userSpaceOnUse" id="a"><path d="M0 0h595.276v595.276H0z" inkscape:connector-curvature="0"/></clipPath></defs><sodipodi:namedview pagecolor="#ffffff" bordercolor="#666666" borderopacity="1" objecttolerance="10" gridtolerance="10" guidetolerance="10" inkscape:pageopacity="0" inkscape:pageshadow="2" inkscape:window-width="2560" inkscape:window-height="1377" showgrid="false" fit-margin-top="0" fit-margin-left="0" fit-margin-right="0" fit-margin-bottom="0" inkscape:zoom="1.189" inkscape:cx="180.043" inkscape:cy="62.346" inkscape:window-x="1912" inkscape:window-y="-8" inkscape:window-maximized="1" inkscape:current-layer="g10" inkscape:document-rotation="0"/><g clip-path="url(#a)" transform="matrix(7.7903 0 0 -7.7903 -2058.096 4085.304)" inkscape:groupmode="layer" inkscape:label="A9Rdfpkp1_1g2j1kf_6i8"><path d="M268.671 524.41v-4.086h5.968v-26.56h4.084v30.646zm27.838-.024c-8.427 0-15.286-6.855-15.286-15.284 0-5.811 3.268-10.865 8.053-13.447a18.611 18.611 0 012.525-1.057c1.364-.406 3.038-.676 4.528-.79.506-.037 2.273-.057 2.788-.06h27.938v4.042h-27.89c-.372 0-1.993.014-2.356.038-1.215.08-2.616.294-3.72.614-.208.06-1.065.375-1.283.475-3.847 1.782-6.527 5.672-6.527 10.185 0 6.19 5.036 11.232 11.23 11.232 6.14 0 11.141-4.956 11.227-11.076h4.057c-.086 8.356-6.907 15.128-15.284 15.128zm-32.322-6.102v-3.928h4.484v-20.593h3.924v24.52zm32.322-.448a8.735 8.735 0 01-8.736-8.734c0-3.402 1.95-6.34 4.79-7.78.437-.255 1.26-.523 1.493-.584.802-.211 1.88-.355 2.753-.42.323-.026 1.905-.038 2.24-.04v-.007h28.005v3.902h-27.89c-.295 0-1.838.01-2.123.034-.483.04-1.183.113-1.633.216-.508.136-.985.316-1.2.434a4.823 4.823 0 00-2.534 4.245 4.835 4.835 0 004.835 4.837 4.835 4.835 0 004.828-4.681h3.898c-.082 4.75-3.954 8.578-8.726 8.578z" fill="#d91920"/></g></svg>