<svg xmlns="http://www.w3.org/2000/svg" version="1.1" width="2470" height="2680" xml:space="preserve" id="svg87"><style type="text/css" id="style2">path{stroke:#000;fill:#000}.blue{stroke:none;fill:#001ec8}.lace{fill:none;stroke:#000050;stroke-width:4.56;stroke-linecap:round;stroke-dasharray:4.56,9.12}</style><g id="mascot"><path d="M1611.977 893.89s9.516-105.79 218.437-113.147c176.135 10.486 299.541 181.092 341.412 235.654 0 0-152.667 101.169-309.918-74.527-181.344-162.704-249.931-47.98-249.931-47.98z" id="path4"/><path d="M1611.977 893.89s9.516-105.79 218.437-113.147c176.135 10.486 299.541 181.092 341.412 235.654 0 0-152.667 101.169-309.918-74.527-181.344-162.704-249.931-47.98-249.931-47.98z" id="path6"/><path d="M1609.99 951.172s-17.842 77.477 85.748 137.389c72.271 41.798 31.627 53.267 31.627 53.267s33.552 6.073 89.941-45.237c80.09-72.877 39.384-130.639 39.384-130.639s-84.44-119.765-160.184-28.007c-.001-.001-23.964 28.114-86.516 13.227z" id="path8"/><path d="M1609.99 951.172s-17.842 77.477 85.748 137.389c72.271 41.798 31.627 53.267 31.627 53.267s33.552 6.073 89.941-45.237c80.09-72.877 39.384-130.639 39.384-130.639s-84.44-119.765-160.184-28.007c-.001-.001-23.964 28.114-86.516 13.227z" id="path10"/><path d="M1886.471 988.581s11.138 114.979-147.041 163.575c0 0 162.152-61.352 338.891 89.662 0 0 18.5-138.54 102.683-209.607-9.579 2.773-141.095 89.481-294.533-43.63z" id="path12"/><path d="M1886.471 988.581s11.138 114.979-147.041 163.575c0 0 162.152-61.352 338.891 89.662 0 0 18.5-138.54 102.683-209.607-9.579 2.773-141.095 89.481-294.533-43.63z" id="path14"/><path d="M1620.416 927.717s52.75 50.553 101.022-46.643c0 .001-59.981-41.814-101.022 46.643z" id="path16"/><path d="M1620.416 927.717s52.75 50.553 101.022-46.643c0 .001-59.981-41.814-101.022 46.643z" id="path18"/><path d="M1663.644 906.901c1.978 6.592-1.131 13.3-6.948 14.985-5.818 1.685-12.139-2.292-14.12-8.884-1.978-6.589 1.134-13.297 6.952-14.982 5.817-1.685 12.138 2.292 14.116 8.881z" fill="#fff"/><path d="M2425.161 1516.737c10.324-223.678 6.519-390.567-146.927-494.139-197.333-224.644-429.309-530.796-380.538-901.605 35.248-267.985 54.6-5.352 54.6-5.352s43.629 382.154 187.388 504.897c366.257 323.333 366.683 500.749 285.477 896.199z" id="path21"/><path d="M2425.161 1516.737c10.324-223.678 6.519-390.567-146.927-494.139-197.333-224.644-429.309-530.796-380.538-901.605 35.248-267.985 54.6-5.352 54.6-5.352s43.629 382.154 187.388 504.897c366.257 323.333 366.683 500.749 285.477 896.199z" id="path23"/><path d="M1828.757 315.384s52.75 258.796 193.011 419.396c147.362 168.734 110.844 131.4 234.271 285.874 0 0-13.726-12.4-55.464.307 0 0-112.847-170.83-224.24-222.873 0 0-139.636-143.078-161.395-297.193-35.334-250.261-3.128-280.036 13.817-185.511z" id="path25"/><path d="M1828.757 315.384s52.75 258.796 193.011 419.396c147.362 168.734 110.844 131.4 234.271 285.874 0 0-13.726-12.4-55.464.307 0 0-112.847-170.83-224.24-222.873 0 0-139.636-143.078-161.395-297.193-35.334-250.261-3.128-280.036 13.817-185.511z" id="path27"/><path d="M1948.479 783.247s-125.77-141.083-137.986-179.972c-21.57-68.681-29.621-88.42-36.591-29.45-3.865 32.725 19.875 183.652 86.226 190.548 44.038 4.576 88.351 18.874 88.351 18.874z" id="path29"/><path d="M1948.479 783.247s-125.77-141.083-137.986-179.972c-21.57-68.681-29.621-88.42-36.591-29.45-3.865 32.725 19.875 183.652 86.226 190.548 44.038 4.576 88.351 18.874 88.351 18.874z" id="path31"/><path d="M265.722 564.054c-8.152 108.752 34.836 295.607 94.35 374.47 116.74 238.76 440.318 520.593 886.586 435.668 138.708-39.579 259.46 24.864 346.052 98.731 83.282 84.862 112.474 99.424 169.505 65.834-59.141-57.281-122.45-124.229-121.132-212.485 4.155-64.08 27.511-126.884 68.622-161.109-40.588-142.423-268.016-149.301-369.352-139.12-131.23 8.867-262.996 76.582-380.2 89.509-325.448-26.657-561.363-250.677-637.996-595.553-32.49-158.844-48.287-64.697-56.435 44.055z" id="path33"/><path d="M265.722 564.054c-8.152 108.752 34.836 295.607 94.35 374.47 116.74 238.76 440.318 520.593 886.586 435.668 138.708-39.579 259.46 24.864 346.052 98.731 83.282 84.862 112.474 99.424 169.505 65.834-59.141-57.281-122.45-124.229-121.132-212.485 4.155-64.08 27.511-126.884 68.622-161.109-40.588-142.423-268.016-149.301-369.352-139.12-131.23 8.867-262.996 76.582-380.2 89.509-325.448-26.657-561.363-250.677-637.996-595.553-32.49-158.844-48.287-64.697-56.435 44.055z" id="path35"/><path d="M562.838 1304.813c230.013 136.835 460.685 181.856 650.958 111.34 0 0 173.715-105.567 417.032 116.186 0 0-273.168 145.195-534.295 135.596-94.496-3.474-390.567-65.621-583.404-262.864-175.166-179.173-177.987-366.224-99.331-247.676 77.492 116.786 149.04 147.418 149.04 147.418z" id="path37"/><path d="M562.838 1304.813c230.013 136.835 460.685 181.856 650.958 111.34 0 0 173.715-105.567 417.032 116.186 0 0-273.168 145.195-534.295 135.596-94.496-3.474-390.567-65.621-583.404-262.864-175.166-179.173-177.987-366.224-99.331-247.676 77.492 116.786 149.04 147.418 149.04 147.418z" id="path39"/><path id="path41" d="M1646.96 1555.904c-145.931 67.844-346.072 182.82-681.562 151.145-69.4-13.925-128.306-23.302-210.886-62.54-127.491-78.544-47.747 23.143-36.1 35.268 120.796 125.768 315.19 156.38 454.117 163.13 207.717 18.733 498.887-112.524 474.432-287.003z"/><path id="path43" d="M1646.96 1555.904c-145.931 67.844-346.072 182.82-681.562 151.145-69.4-13.925-128.306-23.302-210.886-62.54-127.491-78.544-47.747 23.143-36.1 35.268 120.796 125.768 315.19 156.38 454.117 163.13 207.717 18.733 498.887-112.524 474.432-287.003z"/><path id="path45" d="M1774.592 1547.168c-44.607 36.702-90.1 21.424-90.1 21.424 63.313 127.972 114.76 155.245 291.324 232.416 107.66 49.228 142.96 77.51 117.842 122.342 0 0 133.857-71.65 196.354-165.762 0 0-339.162-60.107-515.42-210.42z"/><path id="path47" d="M1774.592 1547.168c-44.607 36.702-90.1 21.424-90.1 21.424 63.313 127.972 114.76 155.245 291.324 232.416 107.66 49.228 142.96 77.51 117.842 122.342 0 0 133.857-71.65 196.354-165.762 0 0-339.162-60.107-515.42-210.42z"/><path id="path49" d="M1670.934 1581.268s5.496 149.755-207.864 248.039c-153.56 70.739 39.722 44.072 138.258-3.813 101.34-49.249 123.407-118.458 108.875-175.289-11.095-43.385-28.16-56.928-39.27-68.937z"/><path id="path51" d="M1670.934 1581.268s5.496 149.755-207.864 248.039c-153.56 70.739 39.722 44.072 138.258-3.813 101.34-49.249 123.407-118.458 108.875-175.289-11.095-43.385-28.16-56.928-39.27-68.937z"/><path d="M2421.78 1531.324s-61.757 173.345-118.533 221.491c0 0 36.291 8.63 49.189 85.811 36.989-90.593 69.344-307.302 69.344-307.302z" id="path53"/><path d="M2421.78 1531.324s-61.757 173.345-118.533 221.491c0 0 36.291 8.63 49.189 85.811 36.989-90.593 69.344-307.302 69.344-307.302z" id="path55"/><path id="path57" d="M2298.066 1774.258c-38.473 216.436-318.17 453.569-748.324 482.844-152.779 10.399-211.64-24.407-211.64-24.407 65.692 203.235 352.705 156.11 352.705 156.11 144.962-29.003 270.68-77.627 391.877-178.315 275.868-229.173 215.382-436.232 215.382-436.232z"/><path id="path59" d="M2298.066 1774.258c-38.473 216.436-318.17 453.569-748.324 482.844-152.779 10.399-211.64-24.407-211.64-24.407 65.692 203.235 352.705 156.11 352.705 156.11 144.962-29.003 270.68-77.627 391.877-178.315 275.868-229.173 215.382-436.232 215.382-436.232z"/><path id="path61" d="M2270.832 1804.793s-176.72 209.97-498.867 285.338c-209.26 48.955-275.479 38.396-275.479 38.396s38.185 92.073 159.84 90.204c210.235-3.235 551.609-189.684 614.506-413.938z"/><path id="path63" d="M2270.832 1804.793s-176.72 209.97-498.867 285.338c-209.26 48.955-275.479 38.396-275.479 38.396s38.185 92.073 159.84 90.204c210.235-3.235 551.609-189.684 614.506-413.938z"/><path id="path65" d="M2319.563 1784.373c19.085 149.388-60.691 287.656-192.6 422.31-118.52 120.99-416.166 252.414-617.34 227.303 152.992 119.747 354.49 55.35 354.49 55.35 505.005-129.43 523.433-638.857 455.45-704.963z"/><path id="path67" d="M2319.563 1784.373c19.085 149.388-60.691 287.656-192.6 422.31-118.52 120.99-416.166 252.414-617.34 227.303 152.992 119.747 354.49 55.35 354.49 55.35 505.005-129.43 523.433-638.857 455.45-704.963z"/><path d="M947.427 945.126c251.781-104.964 473.12-102.836 658.46-50.581 0 0-8.138 17.765-24.361 13.907-5.711-1.357 1.667 12.11 26.509 40.646-188.827-76.332-414.26-62.7-660.608-3.972z" id="path69"/><path d="M947.427 945.126c251.781-104.964 473.12-102.836 658.46-50.581 0 0-8.138 17.765-24.361 13.907-5.711-1.357 1.667 12.11 26.509 40.646-188.827-76.332-414.26-62.7-660.608-3.972z" stroke-width="1.454"/><path class="blue" d="M2072.565 1258.561s-40.71-39.82-105.351-69.183c-32.318-14.681-73.917-29.034-112.812-29.92-47.728-1.085-90.031-8.288-139.967 30.381-161.914 198.937 48.743 442.226 554.504 543.472-53.728-4.627-636.817-584.716-196.374-474.75z" id="path72"/><path class="lace" d="M2072.565 1258.561s-40.71-39.82-105.351-69.183c-32.318-14.681-73.917-29.034-112.812-29.92-47.728-1.085-90.031-8.288-139.967 30.381-161.914 198.937 48.743 442.226 554.504 543.472-53.728-4.627-636.817-584.716-196.374-474.75z" id="path74"/><path class="blue" d="M2089 1250.758s6.621-47.435 31.076-105.404c24.456-57.972 69.361-122.52 135.318-108.428 99.035 38.683 198.1 202.659 144.854 504.171-27.158 96.066-92.941 186.513-92.941 186.513 11.774 2.201-14.852-880.663-218.307-476.852z" id="path76"/><path class="lace" d="M2089 1250.758s6.621-47.435 31.076-105.404c24.456-57.972 69.361-122.52 135.318-108.428 99.035 38.683 198.1 202.659 144.854 504.171-27.158 96.066-92.941 186.513-92.941 186.513 11.774 2.201-14.852-880.663-218.307-476.852z" id="path78"/><path d="M2093.633 1281.527c-180.681-66.114-247.607 81.789 206.231 465.208-9.578-211.528-48.209-785.232-206.231-465.208z" id="path80" stroke="none" fill="#14127b"/><path class="lace" d="M2093.633 1281.527c-180.681-66.114-247.607 81.789 206.231 465.208-9.578-211.528-48.209-785.232-206.231-465.208z" id="path82"/></g><path d="M1777.514 2545.484c-.293.052-.591.115-.885.168v1.723c.293-.631.584-1.263.885-1.89z" font-family="DejaVu Sans,DejaVuSans,sans-serif" font-size="160" letter-spacing="2.058"/></svg>