<svg xmlns="http://www.w3.org/2000/svg" version="1.0" width="385.666" height="149.423" viewBox="0 0 289.25 112.067"><path d="M182.808.034v2.7c0 1.5 1.401 7.498 3.101 13.398 2.1 6.8 3.199 13.002 3.299 17.302.1 5.8-.299 7.1-2.899 11-3.9 5.4-12.1 11.1-20.4 13.8-8.3 2.7-29.9 2.999-40.5.599-19.2-4.5-31.2-17.7-31-34.1.1-5.9.7-8.3 3.8-14.8 2-4.3 3.4-8.2 3.1-8.7-.8-1.4-4.2-1.1-17 1.1-6 1-17.7 3.8-26 6-20.9 5.8-25.6 6.6-43.9 7.5-11.9.6-15.1 1-12.1 1.5 12.1 2.3 40.1.3 57-4.2 9.3-2.4 13.4-2.9 19.8-2.7l8 .3.2 12.5c.1 14 1.699 19.6 7.399 26.9 10.8 13.6 44.401 22.8 64.601 17.6 8.7-2.3 23.2-9.6 28.9-14.6 7-6.2 7.8-8.7 8.4-27.2.4-12.3.8-16 1.9-16.4.8-.3 10 1 20.6 2.8 22.3 3.9 40.2 4.4 56.7 1.6 13.3-2.3 17.6-3.8 9-3.2-28.3 2.1-34.901 1.7-56.601-3.4-13.4-3.1-27-5.5-38.6-6.7z"/><path d="M133.409 20.233c-9.2 8.1-7.7 27.2 2.5 32.9 8.5 4.8 16.6.6 18.8-9.8 2.2-10.5.7-19.6-4.1-23.6-2.3-2-4.1-2.5-8.3-2.5-4.6 0-6 .5-8.9 3zm11 4.1c4.1 2.5 5 4 5.9 10.1 1.8 11.9-6.5 19.1-13.2 11.5-4.7-5.4-5.8-9.1-4.2-13.9 1.2-3.7 5.8-9.8 7.4-9.8.4 0 2.3.9 4.1 2.1zM243.209 27.333c-1.5 2.5 2.1 3.2 18.8 3.5 9.5.2 16.9.2 16.3-.1-1-.5-30.6-4.5-33.1-4.5-.7 0-1.6.5-2 1.1zM27.809 30.633c-4.1 1.3-9.1 3-11 3.9l-3.5 1.7 5.5-.6c11.4-1.2 23.6-4.7 22.5-6.4-1-1.5-5.3-1.1-13.5 1.4zM50.609 37.233c-8.3 5.5-21.4 20.7-19.5 22.7.4.3.8.4 1 .2 5-6.9 12.8-14.2 19.6-18.2 4.5-2.7 8.1-5.5 8.1-6.3 0-2.4-4.4-1.6-9.2 1.6zM225.709 37.133c.6 1 3 3.4 5.3 5.2 9.7 7.5 14.8 12.4 18 17 3.5 5.2 5.4 6.4 4.2 2.6-2.7-8.5-20.8-26.7-26.7-26.7-1.4 0-1.6.4-.8 1.9zM76.913 42.272c-1.225-.103-2.905 1.117-5.105 3.661-3.9 4.4-8 13.3-8 17.1l.1 2.7 1.301-3c.7-1.7 3.499-5.5 6.299-8.5 5.6-6.1 7.701-9.6 6.801-11-.375-.593-.839-.914-1.396-.96zM207.54 46.295c-1.043-.05-1.73.375-1.73 1.337 0 .7 2.698 3.601 5.898 6.501 3.4 2.9 6.7 6.9 7.7 9.1 2.1 4.8 3.9 5.3 3 .8-.8-4-5.9-12.1-9.8-15.3-1.8-1.52-3.726-2.373-5.067-2.438z"/></svg>