<svg id="Layer_1" data-name="Layer 1" xmlns="http://www.w3.org/2000/svg" viewBox="0 0 252.6 256"><defs><style>.cls-1{fill:#282828}.cls-2{fill:#dbd371}.cls-4{fill:#fff}.cls-5{fill:#46b973}.cls-6{fill:#27a05c}.cls-8{fill:#6ec285}</style></defs><path class="cls-1" d="M6 177c6 14 29 43 70 25-1-13-11-23-11-23z" transform="translate(-2)"/><path class="cls-2" d="M196 113a48 48 0 00-19-3H87l-9 5-40 23c-11 7-19 1-25-12a48 48 0 1074 61h53a48 48 0 1056-74z" transform="translate(-2)"/><path d="M170 197a41 41 0 01-33-16 4 4 0 00-3-2H84a4 4 0 00-4 2 42 42 0 01-13 11 42 42 0 01-55-59c6 9 12 11 17 11a21 21 0 0010-4l37-21 1-1 7-4h86a42 42 0 0142 42 42 42 0 01-42 41z" transform="translate(-2)" fill="#faf28e"/><path class="cls-4" d="M202 140a2 2 0 01-2-1 35 35 0 00-17-15 35 35 0 00-13-3H95a2 2 0 110-4h75a39 39 0 0115 3 40 40 0 0119 17 2 2 0 01-2 3z" transform="translate(-2)"/><path class="cls-5" d="M146 8C119-13 60 9 37 34 8 64 6 110 13 126c6 13 14 19 25 12l40-23 9-5h88c2-59-2-82-29-102z" transform="translate(-2)"/><path class="cls-6" d="M78 115l9-5h88c2-59-2-81-29-101a39 39 0 00-12-7c25 15 14 58-3 68l-85 52c-15 8-25 9-30 4l-2 2c6 12 14 16 24 10l40-23z" transform="translate(-2)"/><path class="cls-1" d="M77 74a80 80 0 0135 0l-5-4s7-7 6-17-9-23-25-23c-9 27-11 44-11 44z" transform="translate(-2)"/><path class="cls-5" d="M242 68l-2 83c-2 30-13 61-36 83a96 96 0 01-94 16c-24-10-34-28-38-51a48 48 0 0015-12h53a48 48 0 1056-74c3-30 9-58 19-67 12-11 32-8 38 2s-11 20-11 20z" transform="translate(-2)"/><path class="cls-6" d="M253 48c-3-5-9-8-16-9 15 13 2 24-18 37 4 2 12 1 12 1s1 33-8 56l-2 5a48 48 0 01-81 49H87a48 48 0 01-15 12c4 23 14 41 38 51 28 12 71 5 94-16 23-22 34-53 36-83l2-83s17-10 11-20z" transform="translate(-2)"/><path class="cls-1" d="M227 165a48 48 0 00-2-15 48 48 0 01-85 37H87a48 48 0 01-15 12l1 3a48 48 0 0015-12l52 2a48 48 0 0087-27zM71 23l1-1 1-1a11 11 0 011-1l1-1a6 6 0 011 0l1-1 1-1h1a26 26 0 0115-2 24 24 0 015 1 21 21 0 019 6l-5-2a47 47 0 00-5-1 42 42 0 00-9 0 41 41 0 00-4 0 46 46 0 00-5 1h-2l-2 1h-1l-1 1h-1-1l-1 1zM43 107a6 6 0 01-1 3 6 6 0 01-5 3 6 6 0 01-3-1 6 6 0 119-5z" transform="translate(-2)"/><path class="cls-1" d="M137 77s-87 51-97 56-15 5-21-5c-5-8-11-36-2-62-9 24-8 49-4 60 6 13 14 19 25 12l40-23 9-5h20zM253 48c-3-5-9-8-16-9 5 3 10 8 9 12 0 6-2 11-16 23a76 76 0 009-4s1 64-4 94-18 61-43 76-65 18-90-5a58 58 0 01-18-45 51 51 0 01-12 10c4 22 14 40 38 50 28 12 71 5 94-16 23-22 34-53 36-83l2-83s17-10 11-20z" transform="translate(-2)"/><path class="cls-1" d="M154 15c6 9 12 19 14 30 3 21 3 42 2 65h5c2-53-1-76-21-95zM76 92s1 18-17 30h5l7-5s9-12 7-25h-2z" transform="translate(-2)"/><path class="cls-1" d="M68 94s9-5 16 2a7 7 0 001-1s-2-4-8-5-10 4-10 4z" transform="translate(-2)"/><path d="M77 74a94 94 0 0118-2h7a23 23 0 10-25 2z" transform="translate(-2)" fill="#eaeaea"/><path class="cls-4" d="M106 48a22 22 0 00-6-14 23 23 0 00-33 29 22 22 0 0039-15z" transform="translate(-2)"/><path class="cls-1" d="M88 45a6 6 0 010 2 6 6 0 01-6 6 6 6 0 01-2 0 9 9 0 108-8z" transform="translate(-2)"/><path class="cls-2" d="M136 150h-13a3 3 0 00-3 3v1a3 3 0 003 3h13a3 3 0 003-3v-1a3 3 0 00-3-3zm-31 0H92a3 3 0 00-3 3v1a3 3 0 003 3h13a3 3 0 003-3v-1a3 3 0 00-3-3zm55 4a7 7 0 109 0 7 7 0 00-9 0zm-100 0h-4a3 3 0 01-3-3v-4a3 3 0 00-3-3h-5a3 3 0 00-3 3v4a3 3 0 01-3 3h-4a3 3 0 00-3 3v4a3 3 0 003 3h4a3 3 0 013 3v4a3 3 0 003 3h5a3 3 0 003-3v-4a3 3 0 013-3h4a3 3 0 003-3v-4a3 3 0 00-3-3zm116-6a7 7 0 100-10 7 7 0 000 10zm25 6a7 7 0 00-5-1 7 7 0 105 11 7 7 0 000-10zm-25 16a7 7 0 000 10 6 6 0 001 1 7 7 0 10-1-11z" transform="translate(-2)"/><path class="cls-1" d="M134 148h-12a3 3 0 00-3 3v1a3 3 0 003 3h12a3 3 0 003-3v-1a3 3 0 00-3-3zm-30 0H91a3 3 0 00-3 3v1a3 3 0 003 3h13a3 3 0 003-3v-1a3 3 0 00-3-3zm54 5a7 7 0 1010 0 7 7 0 00-10 0zm-100-1h-4a3 3 0 01-3-3v-4a3 3 0 00-3-3h-4a3 3 0 00-3 3v4a3 3 0 01-3 3h-4a3 3 0 00-3 3v5a3 3 0 003 3h4a3 3 0 013 3v4a3 3 0 003 3h4a3 3 0 003-3v-4a3 3 0 013-3h4a3 3 0 003-3v-5a3 3 0 00-3-3zm116-6a7 7 0 100-10 5 5 0 000 1 7 7 0 000 9zm25 7a7 7 0 100 9 7 7 0 000-9zm-24 15a6 6 0 00-1 1 7 7 0 101-1z" transform="translate(-2)"/><path class="cls-8" d="M221 47c7-7 14-3 16 0 3 5-2 12-12 15s-18-3-4-15zM28 52c-11 20-14 37-11 49s11-20 18-35c7-17 15-27 20-31s3-14-5-8-18 17-22 25z" transform="translate(-2)"/></svg>