<svg xmlns="http://www.w3.org/2000/svg" width="69.075" height="33"><defs><clipPath id="a"><path d="M485.22 612.72h55.26v-26.4h-55.26v26.4z"/></clipPath></defs><path d="M46.1 5.463l-9.157 20.656h6.22l3.304-7.414h1.422l1.96 7.414h6.376l-2.875-8.156s6.503-.954 6.687-6.656c-.21-6.093-5.844-5.844-5.844-5.844zm4.125 3.969h2.218s1.75.21 1.75 1.875c0 1.664-1.156 2.843-3.468 3.062H48.01z"/><text transform="matrix(1.25 0 0 1.25 106.65 710.325)"><tspan x="0" y="0" style="-inkscape-font-specification:Helvetica-Bold" font-size="9.96" font-weight="700" font-family="Helvetica">1</tspan></text><path d="M90.975 720.9h33.75v-33.75h-33.75v33.75z" fill="#fff"/><path d="M10.538 5.462L2.163 26.12h6.062l1.5-3.594h8.625l1.656 3.594h6.157L16.85 5.462h-6.312zm3.156 5.844L16.63 18.4H11.07l2.625-7.094zM19.998 5.462l11.399 25.52L43.17 5.462h-6.226l-5.547 12.5-5.25-12.5h-6.149z"/></svg>