<svg version="1.0" xmlns="http://www.w3.org/2000/svg" width="405.1" height="428.3" viewBox="0 0 303.8 321.2"><path d="M226 5c-2 16-3 81-3 165 0 87 1 115 3 144l1 7h6c6-1 15-4 19-8a2934 2934 0 010-51c-1-29-1-28 7-3l17 48 3 5 4-5c5-6 13-21 17-35l4-10-11-18c-9-16-22-42-24-49l8-19c10-19 16-34 22-49l3-10-3-9c-3-12-6-18-11-28-7-14-6-14-12 6l-14 43-8 25v-7a2017 2017 0 015-134c-4-4-24-13-30-13-2 0-2 1-3 5zM32 76c-9 5-18 17-24 32-5 14-3 31 5 43 3 5 11 10 14 10h3l1-11c1-23 5-36 10-33 4 2 6 20 6 48v15h-8l-14 1c-11 4-18 13-23 27-2 8-2 11-2 29 0 22 1 27 6 41 4 9 11 17 17 19s11 1 17-3l5-3-1 8-1 8 5 2 18 5c2 0 2-1 4-20 7-84 9-145 6-170-3-20-7-33-14-41-8-9-20-11-30-7zm15 159c-1 23-1 25-8 26-3 0-4 0-5-3-2-2-2-5-2-16 0-13 0-15 2-18 3-5 5-7 8-9 6-2 6-3 5 20zM114 80l-21 7c-11 7-10 3-8 33 6 65 18 177 21 180 1 1 14-3 20-6l6-3 1-6 15-86 2-15 1 6a4761 4761 0 019 123c1 2 16-4 22-9 2-1 3-5 6-17a1689 1689 0 0027-176c1-4-8-13-16-17-11-6-10-7-11 23-3 47-7 96-8 93l-2-26-7-81-2-15h-3l-20 6c-8 4-7 0-10 36l-10 90a1534 1534 0 01-8-141l-4 1z"/></svg>