<svg version="1.0" xmlns="http://www.w3.org/2000/svg" width="528" height="528" viewBox="0 0 5280 5280"><path d="M2609 5267c-20-4-527-291-1125-637-829-478-1094-635-1111-659-12-18-24-55-28-84-3-29-5-610-3-1292 3-1229 3-1240 24-1275 23-40-63 12 1307-780 489-282 908-518 931-525 37-11 49-11 92 4 27 9 445 246 929 526 1371 792 1276 735 1299 775 21 35 21 45 24 1285 2 851-1 1266-8 1301-14 65-37 87-176 167l-274 159C2669 5283 2721 5254 2680 5266c-22 6-49 7-71 1z" fill="#1f6aa4"/><g fill="#feffff"><path d="M2609 5267c-20-4-527-291-1125-637-829-478-1094-635-1111-659-12-18-24-55-28-84-3-29-5-610-3-1292 3-1229 3-1240 24-1275 23-40-63 12 1307-780 489-282 908-518 931-525 37-11 49-11 92 4 27 9 445 246 929 526 1371 792 1276 735 1299 775 21 35 21 45 24 1285 2 851-1 1266-8 1301-14 65-37 87-176 167l-274 159C2669 5283 2721 5254 2680 5266c-22 6-49 7-71 1zm1113-767l1067-615V1395L3722 780c-587-338-1071-615-1077-615-5 0-490 277-1077 615L501 1395v2490l1067 617c587 339 1072 615 1077 615 6-1 491-279 1077-617z"/><path d="M1510 3470a716 716 0 01-612-537c-20-68-23-101-23-253 0-204 10-254 81-400 40-81 60-109 139-186 78-78 106-99 186-137 130-63 191-78 349-84 155-6 260 11 435 70l100 34 3 201 2 202h-79c-96 0-96-1-110-120-5-45-13-86-18-90-18-18-206-50-291-50-149 0-275 51-364 149a602 602 0 00-127 249c-16 77-14 257 4 327 69 268 279 412 546 376 103-13 175-42 237-94 66-55 88-51 161 30 34 37 61 73 61 80 0 23-127 124-205 163-44 22-109 46-145 54-84 19-247 27-330 16zM2690 3055v-225h-420v-200h420v-450h220v450h420v200h-420v450h-220v-225zM3847 3273c-4-3-7-105-7-225v-218h-420v-200h420l2-222 3-223 108-3 107-3v451h431l-3 98-3 97-212 3-213 2v450h-103c-57 0-107-3-110-7z"/></g></svg>