<svg version="1.0" xmlns="http://www.w3.org/2000/svg" width="256" height="256" viewBox="0 0 2560 2560"><path d="M638 2234c-346-173-628-316-628-319 0-11 254-385 262-385 4 0 233 113 508 250l500 250 500-250c275-137 504-250 508-250 8 0 262 374 262 385 0 8-1258 635-1272 634-7 0-295-142-640-315z" fill="#3f2084"/><path d="M788 1709c-263-131-478-241-478-244 0-11 274-415 282-415 4 0 161 77 348 170l340 170 340-170c187-93 344-170 348-170 9 0 286 410 280 415-9 8-969 485-975 484-5 0-223-108-485-240z" fill="#49489b"/><path d="M948 1149c-175-87-318-161-318-164 0-12 274-415 282-415 4 0 89 41 188 90l180 90 180-90c99-49 184-90 188-90 9 0 286 410 280 415-9 8-649 325-655 324-5 0-151-72-325-160z" fill="#56479d"/><path d="M1108 589c-87-43-158-81-158-84 0-13 321-485 330-485 10 0 334 479 328 485-9 8-329 165-335 164-5 0-79-36-165-80z" fill="#804ea3"/></svg>